# xmcd CD database file
#
# Track frame offsets:
#	150
#	16275
#	33675
#	52350
#	88575
#	107925
#	121125
#	133425
#	151875
#	168750
#	186375
#	210150
#	224325
#	240450
#	269025
#	283800
#
# Disc length: 4013 seconds
#
# Revision: 0
# Processed by: cddbd v1.5.2PL0 Copyright (c) Steve Scherf et al.
# Submitted via: CDex 1.51
#
DISCID=f30fab10
DTITLE=Memo Gonzalez and The Bluescasters - 10.000 Miles
DYEAR=1998
DGENRE=Blues
TTITLE0=I Wonna Ask You Pretty Ba
TTITLE1=Get Up, Jump Up
TTITLE2=Wanna Bee
TTITLE3=Greyhound
TTITLE4=Who Do You Do
TTITLE5=She's Dynamite
TTITLE6=Let's Burn
TTITLE7=Louisianna Lover man
TTITLE8=10.000 Miles
TTITLE9=The Pressure Of The City
TTITLE10=The Love Of Money
TTITLE11=Tell Me What's The Reason
TTITLE12=Shake It Baby
TTITLE13=She's Leaving
TTITLE14=I've Been Thinking
TTITLE15=Wiggle Toes
EXTD=YEAR: 1998
EXTT0=
EXTT1=
EXTT2=
EXTT3=
EXTT4=
EXTT5=
EXTT6=
EXTT7=
EXTT8=
EXTT9=
EXTT10=
EXTT11=
EXTT12=
EXTT13=
EXTT14=
EXTT15=
PLAYORDER=
